<?xml version="1.0" encoding="UTF-8" standalone="no"?>
<!DOCTYPE svg PUBLIC "-//W3C//DTD SVG 1.1//EN" "http://www.w3.org/Graphics/SVG/1.1/DTD/svg11.dtd">
<svg width="100%" height="100%" viewBox="0 0 266 303" version="1.1" xmlns="http://www.w3.org/2000/svg" xmlns:xlink="http://www.w3.org/1999/xlink" xml:space="preserve" xmlns:serif="http://www.serif.com/" style="fill-rule:evenodd;clip-rule:evenodd;stroke-linejoin:round;stroke-miterlimit:2;">
    <g transform="matrix(1,0,0,1,-1904.235881,-780.694525)">
        <g transform="matrix(0.437646,0,0,0.392505,1537.643942,683.080598)">
            <g transform="matrix(4.762904,0,0,4.762904,-422.047978,-2638.424332)">
                <path d="M305.831,616.664C305.825,616.687 305.819,616.709 305.811,616.731L305.831,616.664Z" style="fill:rgb(220,38,38);"/>
            </g>
            <g transform="matrix(4.762904,0,0,4.762904,-422.047978,-2638.424332)">
                <path d="M305.831,616.664C305.825,616.687 305.819,616.709 305.811,616.731C305.815,616.718 305.822,616.695 305.831,616.664Z" style="fill:rgb(220,38,38);"/>
            </g>
            <g transform="matrix(4.762904,0,0,4.762904,-422.047978,-2638.424332)">
                <path d="M386.379,623.553C386.212,623.212 386.159,623.103 386.379,623.553Z" style="fill:rgb(220,38,38);"/>
            </g>
            <g transform="matrix(4.762904,0,0,4.762904,-422.047978,-2638.424332)">
                <path d="M335.9,730.14C336.382,730.069 336.378,730.069 335.9,730.14Z" style="fill:rgb(220,38,38);"/>
            </g>
            <path d="M960.935,393.863C982.089,421.694 941.521,412.597 942.205,402.721C942.307,401.25 943.33,401.948 957.395,392.288L962.319,384.574L960.935,393.863ZM1034.594,298.689C1034.963,297.135 1034.123,295.348 1034.672,293.829C1042.079,273.311 1035.482,295.694 1034.594,298.689ZM1034.594,298.689C1034.568,298.797 1034.537,298.903 1034.499,299.008C1034.518,298.943 1034.551,298.835 1034.594,298.689ZM1034.594,298.689C1034.539,298.874 1034.506,298.985 1034.499,299.008C1034.537,298.903 1034.568,298.797 1034.594,298.689ZM1034.594,298.689C1035.482,295.694 1042.079,273.311 1034.672,293.829C1034.123,295.348 1034.963,297.135 1034.594,298.689ZM960.935,393.863L962.319,384.574L957.395,392.288C943.33,401.948 942.307,401.25 942.205,402.721C941.521,412.597 982.089,421.694 960.935,393.863Z" style="fill:rgb(220,38,38);"/>
            <path d="M960.935,393.863C982.089,421.694 941.521,412.597 942.205,402.721C942.307,401.25 943.33,401.948 957.395,392.288L962.319,384.574L960.935,393.863ZM1034.594,298.689C1034.963,297.135 1034.123,295.348 1034.672,293.829C1042.079,273.311 1035.482,295.694 1034.594,298.689ZM1034.594,298.689C1034.568,298.797 1034.537,298.903 1034.499,299.008C1034.518,298.943 1034.551,298.835 1034.594,298.689ZM1034.594,298.689C1035.482,295.694 1042.079,273.311 1034.672,293.829C1034.123,295.348 1034.963,297.135 1034.594,298.689ZM1034.594,298.689C1034.551,298.835 1034.518,298.943 1034.499,299.008C1034.537,298.903 1034.568,298.797 1034.594,298.689ZM960.935,393.863L962.319,384.574L957.395,392.288C943.33,401.948 942.307,401.25 942.205,402.721C941.521,412.597 982.089,421.694 960.935,393.863Z" style="fill:rgb(220,38,38);"/>
            <path d="M960.935,393.863C982.089,421.694 941.521,412.597 942.205,402.721C942.307,401.25 943.33,401.948 957.395,392.288L962.319,384.574L960.935,393.863ZM1034.594,298.689C1034.963,297.135 1034.123,295.348 1034.672,293.829C1042.079,273.311 1035.482,295.694 1034.594,298.689ZM1034.594,298.689C1034.568,298.797 1034.537,298.903 1034.499,299.008C1034.518,298.943 1034.551,298.835 1034.594,298.689ZM1034.594,298.689C1035.482,295.694 1042.079,273.311 1034.672,293.829C1034.123,295.348 1034.963,297.135 1034.594,298.689ZM1034.594,298.689C1034.551,298.835 1034.518,298.943 1034.499,299.008C1034.537,298.903 1034.568,298.797 1034.594,298.689ZM960.935,393.863L962.319,384.574L957.395,392.288C943.33,401.948 942.307,401.25 942.205,402.721C941.521,412.597 982.089,421.694 960.935,393.863Z" style="fill:rgb(220,38,38);"/>
            <path d="M960.935,393.863C982.089,421.694 941.521,412.597 942.205,402.721C942.307,401.25 943.33,401.948 957.395,392.288L962.319,384.574L960.935,393.863ZM1034.594,298.689C1034.963,297.135 1034.123,295.348 1034.672,293.829C1042.079,273.311 1035.482,295.694 1034.594,298.689ZM1034.594,298.689C1034.568,298.797 1034.537,298.903 1034.499,299.008C1034.518,298.943 1034.551,298.835 1034.594,298.689ZM960.935,393.863L962.319,384.574L957.395,392.288C943.33,401.948 942.307,401.25 942.205,402.721C941.521,412.597 982.089,421.694 960.935,393.863ZM1034.594,298.689C1035.482,295.694 1042.079,273.311 1034.672,293.829C1034.123,295.348 1034.963,297.135 1034.594,298.689ZM1034.594,298.689C1034.551,298.835 1034.518,298.943 1034.499,299.008C1034.537,298.903 1034.568,298.797 1034.594,298.689Z" style="fill:rgb(220,38,38);"/>
            <path d="M960.935,393.863L962.319,384.574L957.395,392.288C943.33,401.948 942.307,401.25 942.205,402.721C941.521,412.597 982.089,421.694 960.935,393.863ZM1034.594,298.689C1034.551,298.835 1034.518,298.943 1034.499,299.008C1034.537,298.903 1034.568,298.797 1034.594,298.689ZM1034.594,298.689C1035.482,295.694 1042.079,273.311 1034.672,293.829C1034.123,295.348 1034.963,297.135 1034.594,298.689Z" style="fill:rgb(220,38,38);"/>
            <path d="M960.935,393.863L962.319,384.574L957.395,392.288C943.33,401.948 942.307,401.25 942.205,402.721C941.521,412.597 982.089,421.694 960.935,393.863ZM1034.594,298.689C1035.482,295.694 1042.079,273.311 1034.672,293.829C1034.123,295.348 1034.963,297.135 1034.594,298.689ZM1034.594,298.689C1034.551,298.835 1034.518,298.943 1034.499,299.008C1034.537,298.903 1034.568,298.797 1034.594,298.689Z" style="fill:rgb(220,38,38);"/>
            <path d="M960.935,393.863L962.319,384.574L957.395,392.288C943.33,401.948 942.307,401.25 942.205,402.721C941.521,412.597 982.089,421.694 960.935,393.863ZM1034.594,298.689C1035.482,295.694 1042.079,273.311 1034.672,293.829C1034.123,295.348 1034.963,297.135 1034.594,298.689ZM1034.594,298.689C1034.551,298.835 1034.518,298.943 1034.499,299.008C1034.537,298.903 1034.568,298.797 1034.594,298.689Z" style="fill:rgb(220,38,38);"/>
            <path d="M1034.594,298.689C1034.963,297.135 1034.123,295.348 1034.672,293.829C1042.079,273.311 1035.482,295.694 1034.594,298.689ZM1034.594,298.689C1034.568,298.797 1034.537,298.903 1034.499,299.008L1034.594,298.689ZM1034.594,298.689C1034.551,298.835 1034.518,298.943 1034.499,299.008C1034.537,298.903 1034.568,298.797 1034.594,298.689ZM1034.594,298.689C1035.482,295.694 1042.079,273.311 1034.672,293.829C1034.123,295.348 1034.963,297.135 1034.594,298.689Z" style="fill:rgb(220,38,38);"/>
            <path d="M1034.594,298.689C1034.963,297.135 1034.123,295.348 1034.672,293.829C1042.079,273.311 1035.482,295.694 1034.594,298.689ZM1034.594,298.689C1034.568,298.797 1034.537,298.903 1034.499,299.008L1034.594,298.689ZM1034.594,298.689C1035.482,295.694 1042.079,273.311 1034.672,293.829C1034.123,295.348 1034.963,297.135 1034.594,298.689ZM1034.594,298.689C1034.551,298.835 1034.518,298.943 1034.499,299.008C1034.537,298.903 1034.568,298.797 1034.594,298.689Z" style="fill:rgb(220,38,38);"/>
            <path d="M1034.594,298.689C1034.963,297.135 1034.123,295.348 1034.672,293.829C1042.079,273.311 1035.482,295.694 1034.594,298.689ZM960.935,393.863C982.089,421.694 941.521,412.597 942.205,402.721C942.307,401.25 943.33,401.948 957.395,392.288L962.319,384.574L960.935,393.863ZM1034.594,298.689C1034.568,298.797 1034.537,298.903 1034.499,299.008C1034.518,298.943 1034.551,298.835 1034.594,298.689ZM1034.594,298.689C1035.482,295.694 1042.079,273.311 1034.672,293.829C1034.123,295.348 1034.963,297.135 1034.594,298.689ZM1034.594,298.689C1034.551,298.835 1034.518,298.943 1034.499,299.008C1034.537,298.903 1034.568,298.797 1034.594,298.689Z" style="fill:rgb(220,38,38);"/>
            <path d="M960.935,393.863L962.319,384.574L957.395,392.288C943.33,401.948 942.307,401.25 942.205,402.721C941.521,412.597 982.089,421.694 960.935,393.863ZM1034.594,298.689C1035.482,295.694 1042.079,273.311 1034.672,293.829C1034.123,295.348 1034.963,297.135 1034.594,298.689ZM1034.594,298.689C1034.551,298.835 1034.518,298.943 1034.499,299.008C1034.537,298.903 1034.568,298.797 1034.594,298.689Z" style="fill:rgb(220,38,38);"/>
            <path d="M960.935,393.863L962.319,384.574L957.395,392.288C943.33,401.948 942.307,401.25 942.205,402.721C941.521,412.597 982.089,421.694 960.935,393.863ZM1034.594,298.689C1034.551,298.835 1034.518,298.943 1034.499,299.008C1034.537,298.903 1034.568,298.797 1034.594,298.689Z" style="fill:rgb(220,38,38);"/>
            <path d="M1034.594,298.689C1034.963,297.135 1034.123,295.348 1034.672,293.829C1042.079,273.311 1035.482,295.694 1034.594,298.689ZM960.935,393.863L962.319,384.574L957.395,392.288C943.33,401.948 942.307,401.25 942.205,402.721C941.521,412.597 982.089,421.694 960.935,393.863ZM1034.594,298.689L1034.499,299.008C1034.537,298.903 1034.568,298.797 1034.594,298.689Z" style="fill:rgb(220,38,38);"/>
            <path d="M960.935,393.863L962.319,384.574L957.395,392.288C943.33,401.948 942.307,401.25 942.205,402.721C941.521,412.597 982.089,421.694 960.935,393.863ZM1034.594,298.689C1035.482,295.694 1042.079,273.311 1034.672,293.829C1034.123,295.348 1034.963,297.135 1034.594,298.689ZM1034.594,298.689L1034.499,299.008C1034.537,298.903 1034.568,298.797 1034.594,298.689Z" style="fill:rgb(220,38,38);"/>
            <path d="M960.935,393.863L962.319,384.574L957.395,392.288C943.33,401.948 942.307,401.25 942.205,402.721C941.521,412.597 982.089,421.694 960.935,393.863ZM1034.594,298.689C1035.482,295.694 1042.079,273.311 1034.672,293.829C1034.123,295.348 1034.963,297.135 1034.594,298.689ZM1034.594,298.689L1034.499,299.008C1034.537,298.903 1034.568,298.797 1034.594,298.689Z" style="fill:rgb(220,38,38);"/>
            <path d="M960.935,393.863L962.319,384.574L957.395,392.288C943.33,401.948 942.307,401.25 942.205,402.721C941.521,412.597 982.089,421.694 960.935,393.863ZM1034.594,298.689C1035.482,295.694 1042.079,273.311 1034.672,293.829C1034.123,295.348 1034.963,297.135 1034.594,298.689ZM1034.594,298.689L1034.499,299.008C1034.537,298.903 1034.568,298.797 1034.594,298.689Z" style="fill:rgb(220,38,38);"/>
            <path d="M1034.594,298.689L1034.499,299.008C1034.537,298.903 1034.568,298.797 1034.594,298.689ZM1034.594,298.689C1035.482,295.694 1042.079,273.311 1034.672,293.829C1034.123,295.348 1034.963,297.135 1034.594,298.689ZM960.935,393.863L962.319,384.574L957.395,392.288C943.33,401.948 942.307,401.25 942.205,402.721C941.521,412.597 982.089,421.694 960.935,393.863Z" style="fill:rgb(220,38,38);"/>
            <path d="M1034.594,298.689L1034.499,299.008C1034.537,298.903 1034.568,298.797 1034.594,298.689ZM960.935,393.863L962.319,384.574L957.395,392.288C943.33,401.948 942.307,401.25 942.205,402.721C941.521,412.597 982.089,421.694 960.935,393.863Z" style="fill:rgb(220,38,38);"/>
            <path d="M1034.594,298.689C1034.963,297.135 1034.123,295.348 1034.672,293.829C1042.079,273.311 1035.482,295.694 1034.594,298.689ZM1034.594,298.689L1034.499,299.008C1034.537,298.903 1034.568,298.797 1034.594,298.689ZM960.935,393.863L962.319,384.574L957.395,392.288C943.33,401.948 942.307,401.25 942.205,402.721C941.521,412.597 982.089,421.694 960.935,393.863Z" style="fill:rgb(220,38,38);"/>
            <path d="M1034.594,298.689C1034.963,297.135 1034.123,295.348 1034.672,293.829C1042.079,273.311 1035.482,295.694 1034.594,298.689ZM1034.594,298.689C1034.568,298.797 1034.537,298.903 1034.499,299.008L1034.594,298.689ZM1034.594,298.689C1035.482,295.694 1042.079,273.311 1034.672,293.829C1034.123,295.348 1034.963,297.135 1034.594,298.689ZM1034.594,298.689L1034.499,299.008C1034.537,298.903 1034.568,298.797 1034.594,298.689Z" style="fill:rgb(220,38,38);"/>
            <path d="M1034.594,298.689C1034.963,297.135 1034.123,295.348 1034.672,293.829C1042.079,273.311 1035.482,295.694 1034.594,298.689ZM1034.594,298.689C1034.568,298.797 1034.537,298.903 1034.499,299.008L1034.594,298.689ZM1034.594,298.689C1035.482,295.694 1042.079,273.311 1034.672,293.829C1034.123,295.348 1034.963,297.135 1034.594,298.689ZM1034.594,298.689L1034.499,299.008C1034.537,298.903 1034.568,298.797 1034.594,298.689Z" style="fill:rgb(220,38,38);"/>
            <path d="M1034.594,298.689C1034.963,297.135 1034.123,295.348 1034.672,293.829C1042.079,273.311 1035.482,295.694 1034.594,298.689ZM1034.594,298.689C1034.568,298.797 1034.537,298.903 1034.499,299.008L1034.594,298.689ZM1034.594,298.689C1035.482,295.694 1042.079,273.311 1034.672,293.829C1034.123,295.348 1034.963,297.135 1034.594,298.689ZM1034.594,298.689L1034.499,299.008C1034.537,298.903 1034.568,298.797 1034.594,298.689Z" style="fill:rgb(220,38,38);"/>
            <path d="M1034.594,298.689C1034.963,297.135 1034.123,295.348 1034.672,293.829C1042.079,273.311 1035.482,295.694 1034.594,298.689ZM1034.594,298.689C1034.568,298.797 1034.537,298.903 1034.499,299.008L1034.594,298.689ZM957.395,392.288L962.319,384.574L960.935,393.863L957.395,392.288ZM1034.594,298.689C1035.482,295.694 1042.079,273.311 1034.672,293.829C1034.123,295.348 1034.963,297.135 1034.594,298.689ZM1034.594,298.689L1034.499,299.008C1034.537,298.903 1034.568,298.797 1034.594,298.689ZM957.395,392.288L960.935,393.863L962.319,384.574L957.395,392.288Z" style="fill:rgb(220,38,38);"/>
            <path d="M1034.594,298.689C1035.482,295.694 1042.079,273.311 1034.672,293.829C1034.123,295.348 1034.963,297.135 1034.594,298.689ZM1034.594,298.689L1034.499,299.008C1034.537,298.903 1034.568,298.797 1034.594,298.689ZM960.935,393.863L962.319,384.574L957.395,392.288C943.33,401.948 942.307,401.25 942.205,402.721C941.521,412.597 982.089,421.694 960.935,393.863Z" style="fill:rgb(220,38,38);"/>
            <path d="M870.265,793.612C844.698,726.572 843.338,727.524 841.37,712.19C837.133,679.176 1094.45,878.18 1147.469,865.532C1423.595,799.662 1297.733,595.864 1251.935,595.576C1167.172,595.043 1172.762,574.622 1094.189,542.853C987.535,499.731 1064.432,456.414 1128.606,447.904C1171.688,442.192 1443.062,614.219 1443.815,626.414C1458.145,858.38 1187.56,1038.924 1123.432,1017.316C963.031,963.269 883.232,817.325 870.265,793.612Z" style="fill:rgb(220,38,38);"/>
            <path d="M1034.594,298.689C1035.482,295.694 1042.079,273.311 1034.672,293.829C1034.123,295.348 1034.963,297.135 1034.594,298.689ZM1034.594,298.689L1034.499,299.008C1034.537,298.903 1034.568,298.797 1034.594,298.689ZM960.935,393.863L962.319,384.574L957.395,392.288C943.33,401.948 942.307,401.25 942.205,402.721C941.521,412.597 982.089,421.694 960.935,393.863Z" style="fill:rgb(220,38,38);"/>
            <path d="M1034.594,298.689C1035.482,295.694 1042.079,273.311 1034.672,293.829C1034.123,295.348 1034.963,297.135 1034.594,298.689ZM1034.594,298.689L1034.499,299.008C1034.537,298.903 1034.568,298.797 1034.594,298.689ZM957.395,392.288L960.935,393.863L962.319,384.574L957.395,392.288Z" style="fill:rgb(220,38,38);"/>
            <path d="M1034.594,298.689C1035.482,295.694 1042.079,273.311 1034.672,293.829C1034.123,295.348 1034.963,297.135 1034.594,298.689ZM1034.594,298.689L1034.499,299.008C1034.537,298.903 1034.568,298.797 1034.594,298.689Z" style="fill:rgb(220,38,38);"/>
            <path d="M1034.594,298.689C1035.482,295.694 1042.079,273.311 1034.672,293.829C1034.123,295.348 1034.963,297.135 1034.594,298.689ZM1034.594,298.689L1034.499,299.008C1034.537,298.903 1034.568,298.797 1034.594,298.689Z" style="fill:rgb(220,38,38);"/>
            <path d="M1034.594,298.689C1034.963,297.135 1034.123,295.348 1034.672,293.829C1042.079,273.311 1035.482,295.694 1034.594,298.689ZM1034.594,298.689C1034.568,298.797 1034.537,298.903 1034.499,299.008L1034.594,298.689ZM1034.594,298.689C1035.482,295.694 1042.079,273.311 1034.672,293.829C1034.123,295.348 1034.963,297.135 1034.594,298.689ZM1034.594,298.689L1034.499,299.008C1034.537,298.903 1034.568,298.797 1034.594,298.689ZM960.935,393.863L962.319,384.574L957.395,392.288C943.33,401.948 942.307,401.25 942.205,402.721C941.521,412.597 982.089,421.694 960.935,393.863ZM1034.594,298.689L1034.499,299.008C1034.537,298.903 1034.568,298.797 1034.594,298.689ZM1034.594,298.689C1035.482,295.694 1042.079,273.311 1034.672,293.829C1034.123,295.348 1034.963,297.135 1034.594,298.689Z" style="fill:rgb(220,38,38);"/>
            <path d="M960.935,393.863C982.089,421.694 941.521,412.597 942.205,402.721C942.307,401.25 943.33,401.948 957.395,392.288L962.319,384.574L960.935,393.863Z" style="fill:rgb(220,38,38);"/>
            <path d="M960.935,393.863C982.089,421.694 941.521,412.597 942.205,402.721C942.307,401.25 943.33,401.948 957.395,392.288L962.319,384.574L960.935,393.863Z" style="fill:rgb(220,38,38);"/>
            <path d="M1034.594,298.689C1035.482,295.694 1042.079,273.311 1034.672,293.829C1034.123,295.348 1034.963,297.135 1034.594,298.689ZM1034.594,298.689L1034.499,299.008C1034.537,298.903 1034.568,298.797 1034.594,298.689Z" style="fill:rgb(220,38,38);"/>
            <path d="M1034.594,298.689C1035.482,295.694 1042.079,273.311 1034.672,293.829C1034.123,295.348 1034.963,297.135 1034.594,298.689ZM1034.594,298.689L1034.499,299.008C1034.537,298.903 1034.568,298.797 1034.594,298.689Z" style="fill:rgb(220,38,38);"/>
            <path d="M957.395,392.288L962.319,384.574L960.935,393.863L957.395,392.288ZM1034.594,298.689L1034.499,299.008C1034.537,298.903 1034.568,298.797 1034.594,298.689ZM1034.594,298.689C1035.482,295.694 1042.079,273.311 1034.672,293.829C1034.123,295.348 1034.963,297.135 1034.594,298.689Z" style="fill:rgb(220,38,38);"/>
            <path d="M960.935,393.863C982.089,421.694 941.521,412.597 942.205,402.721C942.307,401.25 943.33,401.948 957.395,392.288L962.319,384.574L960.935,393.863ZM1034.594,298.689C1034.568,298.797 1034.537,298.903 1034.499,299.008L1034.594,298.689ZM1034.594,298.689C1035.482,295.694 1042.079,273.311 1034.672,293.829C1034.123,295.348 1034.963,297.135 1034.594,298.689ZM1034.594,298.689L1034.499,299.008C1034.537,298.903 1034.568,298.797 1034.594,298.689ZM957.395,392.288L960.935,393.863L962.319,384.574L957.395,392.288Z" style="fill:rgb(220,38,38);"/>
            <path d="M1034.594,298.689L1034.499,299.008C1034.537,298.903 1034.568,298.797 1034.594,298.689ZM960.935,393.863L962.319,384.574L957.395,392.288C943.33,401.948 942.307,401.25 942.205,402.721C941.521,412.597 982.089,421.694 960.935,393.863Z" style="fill:rgb(220,38,38);"/>
            <path d="M1209.91,677.672C1271.339,729.441 1176.426,804.542 1096.262,757.566C850.149,613.343 840.059,617.542 838.532,593.132C837.899,583.005 836.553,326.609 839.332,317.459C845.836,296.046 1100.267,252.972 1123.307,249.071C1156.7,243.418 1437.459,303.061 1441.495,317.262C1442.007,319.064 1446.243,505.34 1440.349,510.002C1419.987,526.11 1219.579,341.745 1109.082,358.909C1078.803,363.613 922.983,380.063 963.432,545.033C974.387,589.711 1017.096,612.073 1023.667,615.513C1066.291,619.443 1065.726,621.461 1103.229,642.931C1152.239,670.989 1155.256,661.287 1209.91,677.672ZM960.935,393.863L962.319,384.574L957.395,392.288C943.33,401.948 942.307,401.25 942.205,402.721C941.521,412.597 982.089,421.694 960.935,393.863ZM1034.594,298.689L1034.499,299.008C1034.537,298.903 1034.568,298.797 1034.594,298.689Z" style="fill:rgb(220,38,38);"/>
        </g>
    </g>
</svg>
